<mxfile host="app.diagrams.net" modified="2023-03-15T15:59:16.056Z" agent="5.0 (Macintosh; Intel Mac OS X 10_15_7) AppleWebKit/537.36 (KHTML, like Gecko) Chrome/110.0.0.0 Safari/537.36" etag="Kjeef54kW8cBr48uEUU2" version="21.0.2" type="github">
  <diagram name="Page-1" id="4e-JSI0b62_QiDQLGRyu">
    <mxGraphModel dx="1434" dy="828" grid="1" gridSize="10" guides="1" tooltips="1" connect="1" arrows="1" fold="1" page="1" pageScale="1" pageWidth="827" pageHeight="1169" math="0" shadow="0">
      <root>
        <mxCell id="0" />
        <mxCell id="1" parent="0" />
        <mxCell id="2UXiqQNibvZCuuk4xx6z-2" value="f410&amp;nbsp;&lt;br style=&quot;border-color: var(--border-color);&quot;&gt;acc3" style="ellipse;whiteSpace=wrap;html=1;aspect=fixed;" vertex="1" parent="1">
          <mxGeometry x="90" y="310" width="50" height="50" as="geometry" />
        </mxCell>
        <mxCell id="2UXiqQNibvZCuuk4xx6z-3" value="f410&amp;nbsp;&lt;br style=&quot;border-color: var(--border-color);&quot;&gt;acc2" style="ellipse;whiteSpace=wrap;html=1;aspect=fixed;" vertex="1" parent="1">
          <mxGeometry x="90" y="215" width="50" height="50" as="geometry" />
        </mxCell>
        <mxCell id="2UXiqQNibvZCuuk4xx6z-4" value="f410&amp;nbsp;&lt;br&gt;acc1" style="ellipse;whiteSpace=wrap;html=1;aspect=fixed;" vertex="1" parent="1">
          <mxGeometry x="90" y="120" width="50" height="50" as="geometry" />
        </mxCell>
        <mxCell id="2UXiqQNibvZCuuk4xx6z-5" value="filForward&lt;br&gt;contract" style="whiteSpace=wrap;html=1;aspect=fixed;" vertex="1" parent="1">
          <mxGeometry x="260" y="200" width="80" height="80" as="geometry" />
        </mxCell>
        <mxCell id="2UXiqQNibvZCuuk4xx6z-6" value="Multisig account" style="ellipse;whiteSpace=wrap;html=1;" vertex="1" parent="1">
          <mxGeometry x="450" y="200" width="120" height="80" as="geometry" />
        </mxCell>
        <mxCell id="2UXiqQNibvZCuuk4xx6z-7" value="" style="endArrow=classic;html=1;rounded=0;exitX=1;exitY=1;exitDx=0;exitDy=0;entryX=0;entryY=0.5;entryDx=0;entryDy=0;" edge="1" parent="1" source="2UXiqQNibvZCuuk4xx6z-4" target="2UXiqQNibvZCuuk4xx6z-5">
          <mxGeometry width="50" height="50" relative="1" as="geometry">
            <mxPoint x="230" y="150" as="sourcePoint" />
            <mxPoint x="280" y="100" as="targetPoint" />
          </mxGeometry>
        </mxCell>
        <mxCell id="2UXiqQNibvZCuuk4xx6z-16" value="send 2000 FIL" style="edgeLabel;html=1;align=center;verticalAlign=middle;resizable=0;points=[];" vertex="1" connectable="0" parent="2UXiqQNibvZCuuk4xx6z-7">
          <mxGeometry x="-0.2231" y="4" relative="1" as="geometry">
            <mxPoint as="offset" />
          </mxGeometry>
        </mxCell>
        <mxCell id="2UXiqQNibvZCuuk4xx6z-8" value="" style="endArrow=classic;html=1;rounded=0;exitX=1;exitY=0.5;exitDx=0;exitDy=0;entryX=0;entryY=0.5;entryDx=0;entryDy=0;" edge="1" parent="1" source="2UXiqQNibvZCuuk4xx6z-3" target="2UXiqQNibvZCuuk4xx6z-5">
          <mxGeometry width="50" height="50" relative="1" as="geometry">
            <mxPoint x="160" y="310" as="sourcePoint" />
            <mxPoint x="210" y="260" as="targetPoint" />
          </mxGeometry>
        </mxCell>
        <mxCell id="2UXiqQNibvZCuuk4xx6z-17" value="send 4000 FIL" style="edgeLabel;html=1;align=center;verticalAlign=middle;resizable=0;points=[];" vertex="1" connectable="0" parent="2UXiqQNibvZCuuk4xx6z-8">
          <mxGeometry x="-0.375" y="-1" relative="1" as="geometry">
            <mxPoint x="12" y="-1" as="offset" />
          </mxGeometry>
        </mxCell>
        <mxCell id="2UXiqQNibvZCuuk4xx6z-9" value="" style="endArrow=classic;html=1;rounded=0;" edge="1" parent="1" source="2UXiqQNibvZCuuk4xx6z-2">
          <mxGeometry width="50" height="50" relative="1" as="geometry">
            <mxPoint x="230" y="380" as="sourcePoint" />
            <mxPoint x="260" y="240" as="targetPoint" />
          </mxGeometry>
        </mxCell>
        <mxCell id="2UXiqQNibvZCuuk4xx6z-18" value="send 3000 FIL" style="edgeLabel;html=1;align=center;verticalAlign=middle;resizable=0;points=[];" vertex="1" connectable="0" parent="2UXiqQNibvZCuuk4xx6z-9">
          <mxGeometry x="-0.3862" relative="1" as="geometry">
            <mxPoint as="offset" />
          </mxGeometry>
        </mxCell>
        <mxCell id="2UXiqQNibvZCuuk4xx6z-11" value="" style="endArrow=classic;html=1;rounded=0;exitX=1;exitY=0.5;exitDx=0;exitDy=0;entryX=0;entryY=0.5;entryDx=0;entryDy=0;strokeWidth=7;" edge="1" parent="1" source="2UXiqQNibvZCuuk4xx6z-5" target="2UXiqQNibvZCuuk4xx6z-6">
          <mxGeometry width="50" height="50" relative="1" as="geometry">
            <mxPoint x="390" y="270" as="sourcePoint" />
            <mxPoint x="440" y="220" as="targetPoint" />
          </mxGeometry>
        </mxCell>
        <mxCell id="2UXiqQNibvZCuuk4xx6z-12" value="accouting" style="swimlane;fontStyle=0;childLayout=stackLayout;horizontal=1;startSize=30;horizontalStack=0;resizeParent=1;resizeParentMax=0;resizeLast=0;collapsible=1;marginBottom=0;whiteSpace=wrap;html=1;" vertex="1" parent="1">
          <mxGeometry x="560" y="250" width="130" height="110" as="geometry" />
        </mxCell>
        <mxCell id="2UXiqQNibvZCuuk4xx6z-14" value="&lt;b&gt;f410 acc2:&lt;/b&gt; 2000 FIL" style="text;strokeColor=none;fillColor=none;align=left;verticalAlign=middle;spacingLeft=4;spacingRight=4;overflow=hidden;points=[[0,0.5],[1,0.5]];portConstraint=eastwest;rotatable=0;whiteSpace=wrap;html=1;" vertex="1" parent="2UXiqQNibvZCuuk4xx6z-12">
          <mxGeometry y="30" width="130" height="30" as="geometry" />
        </mxCell>
        <mxCell id="2UXiqQNibvZCuuk4xx6z-13" value="&lt;b&gt;f410 acc1&lt;/b&gt;: 4000 FIL" style="text;strokeColor=none;fillColor=none;align=left;verticalAlign=middle;spacingLeft=4;spacingRight=4;overflow=hidden;points=[[0,0.5],[1,0.5]];portConstraint=eastwest;rotatable=0;whiteSpace=wrap;html=1;" vertex="1" parent="2UXiqQNibvZCuuk4xx6z-12">
          <mxGeometry y="60" width="130" height="30" as="geometry" />
        </mxCell>
        <mxCell id="2UXiqQNibvZCuuk4xx6z-15" value="&lt;b&gt;f410 acc3&lt;/b&gt;: 3000 FIL" style="text;strokeColor=none;fillColor=none;align=left;verticalAlign=middle;spacingLeft=4;spacingRight=4;overflow=hidden;points=[[0,0.5],[1,0.5]];portConstraint=eastwest;rotatable=0;whiteSpace=wrap;html=1;" vertex="1" parent="2UXiqQNibvZCuuk4xx6z-12">
          <mxGeometry y="90" width="130" height="20" as="geometry" />
        </mxCell>
      </root>
    </mxGraphModel>
  </diagram>
</mxfile>
